<svg id="Layer_1" xmlns="http://www.w3.org/2000/svg" height="auto" viewBox="0 0 1353.136 1354.251"><style><![CDATA[
	.st0{fill:#fbb563;}
	.st2{fill:none;stroke:#fbb563;stroke-width:20;stroke-miterlimit:10;}
]]></style><path class="st2" d="M677.775 312.51c43.848 0 66.563-12.15 66.563-12.15s6.332 123.084 202.855 87.164l31.695 66.562s-238.783 229.267 0 465.935l-48.31 55.467s-150.323-120.974-252.804 77.658c-102.48-198.632-252.8-77.658-252.8-77.658L376.66 920.02c238.783-236.667 0-465.934 0-465.934l31.695-66.562c196.523 35.92 202.855-87.165 202.855-87.165s28.003 12.15 66.565 12.15z"/><path class="st0" d="M625.915 466.124l.15-5.052c.94-.297 2.6-.668 4.976-1.114 3.814-.743 6.13-1.41 6.947-2.006.817-.594 1.82-2.03 3.01-4.31l14.996-39.264 17.595-46.167h8.083l.666 1.338 12.914 30.606c2.918 6.49 5.54 12.79 7.866 18.906 2.325 6.117 4.328 11.106 6.01 14.97.99 2.327 2.35 5.82 4.083 10.474.888 2.526 2.25 5.696 4.08 9.51.99 2.08 1.733 3.293 2.23 3.64.89.742 2.34 1.237 4.345 1.485 2.006.247 4.172.816 6.5 1.707.247 1.634.372 2.85.372 3.64 0 .347-.025.892-.074 1.634-3.666 0-7.7-.172-12.11-.52-4.407-.345-8.37-.52-11.885-.52-3.913 0-6.735.05-8.47.15l-12.63.668-3.64.148c0-1.733.075-3.392.225-4.978l8.245-1.783c2.476-.643 3.912-1.14 4.31-1.486.494-.496.742-1.065.742-1.71 0-.642-.124-1.31-.37-2.005l-2.952-7.28-5.828-14.56-28.36-.075c-1.053 2.377-3.234 8.197-6.542 17.458-.94 2.625-1.412 4.408-1.412 5.35 0 1.287.346 2.203 1.04 2.748 1.14.94 3.317 1.61 6.538 2.006.446.1 2.203.372 5.274.817.05 1.782.074 3.02.074 3.713 0 .546-.05 1.115-.148 1.71-3.07 0-10.4-.42-21.99-1.264l-3.045.52c-3.667.593-7.158.89-10.476.89h-1.34zm34.944-41.75c11.573.15 18.4.223 20.477.223l1.855-.074c-1.486-4.408-3.42-9.546-5.796-15.415-2.377-5.87-4.31-10.337-5.794-13.41l-10.743 28.676zM611.094 618.266l.223-5.052c6.19-.792 10.127-2.054 11.812-3.79 1.088-1.187 1.93-4.282 2.525-9.285l.965-26.447 1.115-26.892c.1-1.634.148-2.624.148-2.97 0-6.984-.41-11.02-1.226-12.11-.817-1.09-4-2.154-9.546-3.194-1.386-.297-2.476-.544-3.268-.743-.1-1.237-.148-2.277-.148-3.12v-2.303c1.83-.148 3.98-.223 6.453-.223l21.73.743c.494.05 1.186.1 2.076.148l3.412.148c.84 1.01 1.697 2.324 2.57 3.944 1.814 3.623 4.23 8.926 7.247 15.912l.854 1.988 11.54 25.207 1.218 2.586 2.38 5.053c.763 1.623 1.595 3.392 2.498 5.307l2.43 5.154c.693-1.188 1.362-2.5 2.006-3.938 1.98-4.557 3.91-8.74 5.794-12.556 3.27-6.734 7.7-17.036 13.298-30.904.89-2.23 2.363-5.583 4.42-10.066 2.055-4.48 3.182-6.846 3.38-7.094.444-.396 1.335-.595 2.67-.595.495 0 1.263-.024 2.302-.074 2.572-.147 5.664-.27 9.275-.37 5.194-.05 9.363-.21 12.504-.483 3.142-.272 4.91-.41 5.308-.41.494 0 1.088.05 1.78.15.05.693.075 1.238.075 1.633l-.15 2.23c0 .444-.024 1.113-.073 2.004-4.655.694-8.444 1.734-11.366 3.12-2.03.99-3.045 2.23-3.045 3.716v1.114l1.274 22.732c.15 2.08.55 12.406 1.2 30.977.15 4.16.476 9.435.978 15.823.1.793.15 1.412.15 1.857.048 1.188.308 1.957.78 2.303.47.347 4.913 1.783 13.333 4.31.05.792.074 1.386.074 1.782 0 1.04-.026 2.08-.075 3.12-1.337 0-4.705-.285-10.104-.854-5.397-.57-10.448-.854-15.153-.854-7.182 0-14.164.297-20.95.89-.89.1-1.757.175-2.6.224l.15-5.126c2.028-.792 4.728-1.46 8.097-2.006 2.377-.396 3.887-1.064 4.53-2.006.644-.94.967-3.566.967-7.875 0-1.633-.025-3.07-.073-4.308-.25-5.2-.397-12.43-.446-21.692l-1.262-26.224c-.148-3.714-.323-6.29-.52-7.726l-18.498 42.493c-.446.99-1.114 2.427-2.006 4.31-1.14 2.426-1.907 4.085-2.303 4.977-3.813 9.163-6.462 16.17-7.948 21.023-.397 1.238-.992 2.848-1.783 4.83l-5.706-.075-4.014-11.366c-1.19-2.972-3.222-7.478-6.096-13.52-1.686-3.517-3-6.364-3.94-8.544-.447-.892-.77-1.56-.967-2.006l-.893-1.857c-.05-.297-.124-.544-.223-.743l-11.076-23.846-6.765-14.486-.59 35.138-.516 22.807c0 3.764.706 6.45 2.117 8.06 1.413 1.61 4.446 2.984 9.102 4.123l3.565.892v5.423c-2.873-.05-5.956-.26-9.25-.63-3.293-.373-7.664-.558-13.11-.558-1.138.002-6.016.225-14.633.67zM653.735 770.482v-5.35c.984-.297 2.608-.717 4.873-1.262 3.2-.793 5.587-1.61 7.162-2.452.89-1.534 1.337-3.665 1.337-6.39l-.074-8.766.148-16.938-.073-4.012c.396-9.806.594-14.857.594-15.154l-.147-9.88.223-4.013-.37-8.47-.15-3.192c-.05-.495-.223-1.287-.52-2.377-2.03-.94-5.324-1.535-9.88-1.783-1.09-.05-1.957-.123-2.6-.223l-.15-6.538 21.24.892c2.624.1 4.258.148 4.903.148 2.92 0 7.598-.197 14.035-.594 3.613-.247 5.89-.396 6.832-.446.06.94.09 1.734.09 2.377 0 .84-.06 1.93-.18 3.267-1.98.695-4.238 1.35-6.783 1.97-2.545.62-4.633 1.25-6.264 1.894-.296 1.29-.443 3.147-.443 5.573 0 2.13.073 3.862.222 5.2-.15 8.37-.223 14.81-.223 19.314l.074 19.612-.37 9.953.297 14.858-.223 2.823c0 .396.147.966.444 1.71 3.004.644 5.736 1.09 8.2 1.336.443.05 1.945.248 4.506.594.197 1.485.295 2.724.295 3.714 0 .546-.026 1.388-.075 2.526-.643 0-1.137.025-1.482.074-1.584.1-2.498.148-2.744.148-.35 0-.99-.074-1.93-.223-.692-.1-3.98-.446-9.864-1.04l-13.128-.15c-2.62 0-6.43.25-11.423.744-3.265.302-5.39.476-6.38.525zM614.4 832.29l-.297-5.2h6.314l2.154-.074c2.973-.148 5.027-.223 6.167-.223.594 0 2.327.05 5.2.148.643.05 1.188.075 1.634.075s2.007-.05 4.68-.148 4.186-.148 4.533-.148c.544 0 1.312.024 2.303.073 7.626 6.934 13.842 12.9 18.646 17.902 4.803 5.004 22.334 22.51 52.596 52.522v-1.857l-.298-8.617c-.148-5.052-.347-9.05-.595-11.997-.248-2.947-.396-6.464-.445-10.55-.05-4.085-.223-7.787-.52-11.106-.595-6.486-.892-10.226-.892-11.217-.05-3.22-.397-5.175-1.04-5.87-1.04-1.087-3.418-1.905-7.132-2.45-2.724-.445-4.755-1.015-6.09-1.71l.073-4.382 1.93-.222 14.635-.445 16.344-.446c1.088-.05 2.127-.074 3.12-.074l.073 4.83c-1.14.593-2.303 1.038-3.492 1.336-3.17.742-5 1.262-5.496 1.56-2.525 1.437-3.888 2.302-4.085 2.6-.447.595-.67 1.51-.67 2.75 0 .296.048 1.336.148 3.118.05.893.074 2.973.074 6.24.05 7.182.247 12.853.595 17.012.098 1.338.172 2.85.223 4.532l.816 26.075c.05 1.833.074 3.12.074 3.863v9.137l.224 3.863-.224 4.012c.197 2.03.298 3.244.298 3.64v3.938l-8.544.298-8.84-9.14-18.052-17.9-12.63-12.63-9.285-9.51c-6.043-5.942-11.54-11.167-16.492-15.674l-12.11-10.92.67 27.635c.048 1.683.073 3.415.073 5.198l-.074 5.275.446 9.73c.148 4.063.42 8.47.817 13.225.1 1.287.223 2.19.372 2.71s.445 1.276.89 2.267c1.932.694 6.14 1.215 12.63 1.56.446.1 1.09.273 1.93.52l.298 6.02-2.897.073c-1.584 0-6.586-.37-15.005-1.114-7.875.1-13.125.248-15.75.446-2.625.197-4.06.297-4.308.297-.594 0-1.41-.1-2.45-.297-.1-1.14-.15-2.13-.15-2.973 0-.544.025-1.436.075-2.674 1.386-.248 2.525-.37 3.417-.37.296 0 1.262.048 2.896.147 4.16 0 6.623-.31 7.392-.93.767-.617 1.2-2.29 1.3-5.014.346-7.875.52-12.678.52-14.412v-4.086l.15-24.143-.224-15.08c-.05-5.746-.42-9.732-1.114-11.96-.297-1.14-.867-2.13-1.708-2.974-1.734-1.78-3.666-3.118-5.794-4.01-1.288-.544-4.63-1.238-10.028-2.08z"/></svg>