<svg id="Layer_1" xmlns="http://www.w3.org/2000/svg" height="auto" viewBox="0 0 1353.136 1354.251"><style><![CDATA[
	.gear{fill:none;stroke:#fbb563;stroke-width:20;stroke-miterlimit:10;}
]]></style><path class="gear" d="M1340.25 743.96V604.38l-85.788-7.26c-3.242-24.457-7.152-48.426-13.35-71.82l78.44-40.165-53.202-128.95-83.487 26.77c-12.31-21.16-25.873-41.462-40.672-60.814l56.807-67.05-98.686-98.693-67.04 56.775c-19.353-14.8-39.65-28.42-60.81-40.728l26.777-83.6L870.283 35.44l-40.162 78.003c-23.394-6.193-47.364-9.198-71.823-12.445l-7.258-85.746H611.456l-7.258 85.746c-24.458 3.247-48.425 7.136-71.82 13.33l-40.163-78.45-128.96 53.193 26.774 83.494c-21.157 12.307-41.454 25.868-60.806 40.667l-67.055-56.806-98.698 98.685 56.78 67.046c-14.798 19.35-28.415 39.646-40.722 60.806l-83.605-26.778-53.41 128.953 78.013 40.167c-6.195 23.393-12.74 47.363-15.987 71.816l-89.29 7.262V743.96l89.29 7.26c3.25 24.454 8.908 48.423 15.103 71.816l-77.57 40.166 53.64 128.953 83.71-26.772c12.31 21.158 25.982 41.457 40.78 60.806l-56.755 67.057 98.715 98.695 67.06-56.78c19.35 14.798 39.653 28.414 60.814 40.723l-26.77 83.605 128.954 53.41 40.167-78.01c23.39 6.192 47.36 12.282 71.814 15.53l7.26 88.83h139.58l7.26-88.83c24.452-3.246 48.423-8.677 71.813-14.872l40.166 77.68 128.956-53.58-26.77-83.68c21.16-12.307 41.456-25.965 60.804-40.764l67.05 56.758 98.702-98.71-56.777-67.055c14.8-19.35 28.416-39.652 40.723-60.81l83.598 26.768 53.418-128.954-78.006-40.163c6.193-23.393 9.24-47.363 12.487-71.817l85.786-7.26z"/><circle class="gear" cx="677.775" cy="675.751" r="515.064"/></svg>