<?xml version="1.0" encoding="utf-8"?>
<!DOCTYPE svg PUBLIC "-//W3C//DTD SVG 1.1//EN" "http://www.w3.org/Graphics/SVG/1.1/DTD/svg11.dtd">
<svg version="1.1" id="Layer_1" xmlns="http://www.w3.org/2000/svg" xmlns:xlink="http://www.w3.org/1999/xlink" x="0px" y="0px"
	 width="100%" height="auto" viewBox="0 0 1353.136 1354.251" style="enable-background:new 0 0 1353.136 1354.251;"
	 xml:space="preserve">
<style type="text/css">
<![CDATA[
	.st0{fill:#fbb563;}
	.st2{fill:none;stroke:#fbb563;stroke-width:20;stroke-miterlimit:10;}
]]>
</style>
<path class="st2" d="M677.775,312.509c43.848,0,66.563-12.15,66.563-12.15s6.332,123.085,202.855,87.165l31.695,66.562
	c0,0-238.783,229.267,0,465.935l-48.311,55.466c0,0-150.322-120.974-252.803,77.658c-102.48-198.632-252.801-77.658-252.801-77.658
	l-48.313-55.466c238.783-236.668,0-465.935,0-465.935l31.695-66.562c196.523,35.92,202.855-87.165,202.855-87.165
	S639.213,312.509,677.775,312.509z"/>
<g>
	<path class="st0" d="M625.915,466.124l0.149-5.052c0.941-0.297,2.6-0.668,4.977-1.114c3.813-0.743,6.129-1.411,6.946-2.006
		c0.817-0.594,1.82-2.03,3.009-4.309l14.997-39.265l17.595-46.167c1.646,0,3.216,0,4.713,0h3.368l0.667,1.337l12.914,30.606
		c2.918,6.489,5.54,12.791,7.866,18.906c2.325,6.117,4.328,11.106,6.011,14.969c0.988,2.328,2.35,5.82,4.082,10.475
		c0.889,2.526,2.25,5.696,4.081,9.509c0.99,2.08,1.733,3.294,2.229,3.64c0.892,0.743,2.341,1.238,4.346,1.486
		c2.006,0.248,4.172,0.817,6.501,1.708c0.246,1.634,0.371,2.849,0.371,3.64c0,0.347-0.025,0.892-0.074,1.634
		c-3.666,0-7.701-0.173-12.109-0.52c-4.408-0.346-8.37-0.52-11.886-0.52c-3.913,0-6.735,0.05-8.47,0.148l-12.629,0.669l-3.64,0.148
		c0-1.733,0.074-3.392,0.224-4.978l8.245-1.783c2.476-0.643,3.912-1.139,4.31-1.486c0.494-0.495,0.742-1.064,0.742-1.708
		c0-0.643-0.124-1.312-0.371-2.006l-2.951-7.28l-5.828-14.561l-28.36-0.074c-1.053,2.377-3.234,8.197-6.542,17.458
		c-0.941,2.625-1.412,4.408-1.412,5.349c0,1.288,0.346,2.204,1.04,2.749c1.139,0.941,3.317,1.61,6.538,2.006
		c0.446,0.1,2.203,0.372,5.274,0.817c0.049,1.783,0.074,3.021,0.074,3.714c0,0.546-0.05,1.115-0.148,1.709
		c-3.071,0-10.4-0.42-21.989-1.263l-3.046,0.52c-3.666,0.594-7.157,0.892-10.475,0.892H625.915z M660.859,424.374
		c11.574,0.149,18.4,0.223,20.478,0.223l1.855-0.074c-1.486-4.408-3.419-9.546-5.796-15.415c-2.377-5.869-4.309-10.337-5.794-13.409
		L660.859,424.374z"/>
	<path class="st0" d="M611.094,618.266l0.223-5.052c6.19-0.792,10.127-2.054,11.812-3.789c1.089-1.188,1.931-4.283,2.526-9.286
		l0.965-26.446l1.115-26.892c0.099-1.635,0.148-2.625,0.148-2.972c0-6.983-0.409-11.019-1.226-12.109
		c-0.817-1.089-4-2.154-9.546-3.194c-1.387-0.297-2.477-0.544-3.269-0.743c-0.1-1.237-0.148-2.277-0.148-3.12v-2.303
		c1.829-0.148,3.98-0.223,6.453-0.223l21.73,0.743c0.494,0.05,1.186,0.1,2.076,0.148l3.412,0.148c0.84,1.009,1.697,2.324,2.57,3.944
		c1.814,3.623,4.23,8.926,7.247,15.912l0.854,1.988l11.54,25.207c0.274,0.583,0.68,1.444,1.218,2.586
		c0.822,1.746,1.616,3.43,2.379,5.053c0.764,1.623,1.596,3.392,2.499,5.307c0.902,1.915,1.712,3.633,2.43,5.154
		c0.693-1.188,1.362-2.5,2.006-3.938c1.979-4.556,3.911-8.74,5.794-12.555c3.269-6.734,7.7-17.036,13.298-30.904
		c0.891-2.229,2.363-5.583,4.42-10.066c2.055-4.481,3.182-6.846,3.38-7.094c0.444-0.396,1.335-0.595,2.671-0.595
		c0.494,0,1.262-0.024,2.301-0.074c2.572-0.148,5.664-0.271,9.275-0.371c5.194-0.049,9.363-0.21,12.504-0.483
		c3.141-0.272,4.91-0.409,5.307-0.409c0.494,0,1.088,0.05,1.781,0.148c0.048,0.694,0.074,1.239,0.074,1.634l-0.149,2.229
		c0,0.445-0.025,1.114-0.074,2.005c-4.655,0.694-8.444,1.734-11.366,3.12c-2.031,0.991-3.045,2.23-3.045,3.716v1.114l1.275,22.732
		c0.149,2.08,0.55,12.406,1.201,30.977c0.149,4.16,0.475,9.435,0.977,15.823c0.1,0.793,0.149,1.412,0.149,1.857
		c0.049,1.188,0.309,1.957,0.78,2.303c0.47,0.347,4.914,1.783,13.334,4.309c0.049,0.793,0.074,1.387,0.074,1.783
		c0,1.04-0.025,2.08-0.074,3.12c-1.337,0-4.705-0.285-10.104-0.854c-5.398-0.569-10.449-0.854-15.154-0.854
		c-7.182,0-14.164,0.297-20.949,0.891c-0.891,0.1-1.758,0.174-2.6,0.223l0.148-5.126c2.029-0.792,4.729-1.46,8.098-2.006
		c2.377-0.396,3.887-1.064,4.531-2.006c0.643-0.94,0.966-3.566,0.966-7.875c0-1.634-0.026-3.07-0.074-4.309
		c-0.249-5.2-0.397-12.431-0.446-21.692l-1.263-26.224c-0.148-3.714-0.323-6.289-0.521-7.726l-18.497,42.493
		c-0.446,0.991-1.114,2.427-2.006,4.309c-1.14,2.427-1.907,4.086-2.303,4.978c-3.814,9.163-6.463,16.17-7.949,21.023
		c-0.397,1.238-0.992,2.848-1.783,4.829l-5.705-0.074l-4.014-11.366c-1.191-2.972-3.222-7.478-6.096-13.521
		c-1.686-3.516-3-6.363-3.941-8.543c-0.446-0.892-0.769-1.56-0.966-2.006l-0.893-1.857c-0.05-0.297-0.124-0.544-0.223-0.743
		l-11.077-23.846l-6.765-14.486l-0.589,35.138l-0.516,22.807c0,3.764,0.706,6.451,2.117,8.06c1.412,1.61,4.445,2.984,9.101,4.123
		l3.565,0.892v5.423c-2.873-0.049-5.956-0.26-9.249-0.631c-3.294-0.372-7.665-0.557-13.112-0.557
		C624.589,617.597,619.711,617.82,611.094,618.266z"/>
	<path class="st0" d="M653.735,770.482v-5.35c0.984-0.297,2.608-0.717,4.873-1.262c3.199-0.793,5.587-1.609,7.162-2.452
		c0.891-1.534,1.337-3.665,1.337-6.389l-0.074-8.767l0.148-16.938l-0.074-4.012c0.396-9.806,0.594-14.857,0.594-15.154l-0.148-9.881
		l0.223-4.012l-0.371-8.469l-0.149-3.193c-0.05-0.495-0.223-1.287-0.52-2.377c-2.031-0.941-5.324-1.535-9.88-1.783
		c-1.09-0.049-1.957-0.123-2.6-0.223l-0.149-6.538l21.24,0.892c2.623,0.1,4.257,0.148,4.902,0.148c2.921,0,7.599-0.197,14.036-0.594
		c3.613-0.247,5.891-0.396,6.832-0.446c0.059,0.941,0.089,1.734,0.089,2.377c0,0.842-0.06,1.932-0.179,3.268
		c-1.979,0.695-4.238,1.351-6.783,1.969c-2.545,0.62-4.633,1.252-6.264,1.895c-0.296,1.289-0.443,3.146-0.443,5.572
		c0,2.129,0.073,3.862,0.222,5.199c-0.148,8.371-0.222,14.81-0.222,19.315l0.074,19.612l-0.371,9.954l0.297,14.858l-0.223,2.822
		c0,0.396,0.147,0.966,0.444,1.709c3.004,0.645,5.736,1.09,8.2,1.337c0.443,0.05,1.945,0.249,4.506,0.595
		c0.197,1.485,0.295,2.724,0.295,3.714c0,0.546-0.025,1.388-0.074,2.526c-0.643,0-1.137,0.025-1.482,0.074
		c-1.584,0.1-2.498,0.148-2.744,0.148c-0.348,0-0.99-0.074-1.93-0.223c-0.691-0.1-3.98-0.446-9.863-1.041l-13.128-0.148
		c-2.621,0-6.43,0.248-11.423,0.743C656.85,770.259,654.724,770.433,653.735,770.482z"/>
	<path class="st0" d="M614.4,832.29l-0.297-5.2h6.314l2.154-0.074c2.972-0.148,5.026-0.223,6.166-0.223
		c0.594,0,2.327,0.049,5.2,0.148c0.643,0.05,1.188,0.074,1.634,0.074s2.006-0.049,4.68-0.148s4.185-0.148,4.532-0.148
		c0.544,0,1.312,0.025,2.303,0.074c7.626,6.934,13.842,12.901,18.646,17.902c4.803,5.004,22.334,22.51,52.596,52.522v-1.857
		l-0.298-8.617c-0.148-5.052-0.347-9.051-0.595-11.997c-0.248-2.947-0.396-6.464-0.445-10.549c-0.05-4.086-0.223-7.788-0.52-11.107
		c-0.595-6.486-0.892-10.226-0.892-11.217c-0.05-3.219-0.397-5.175-1.04-5.869c-1.04-1.088-3.418-1.906-7.132-2.451
		c-2.724-0.445-4.755-1.015-6.091-1.709l0.074-4.383l1.931-0.223l14.635-0.445l16.344-0.446c1.089-0.049,2.128-0.074,3.12-0.074
		l0.074,4.829c-1.141,0.594-2.303,1.039-3.492,1.337c-3.17,0.743-5.002,1.263-5.497,1.56c-2.525,1.438-3.888,2.303-4.085,2.601
		c-0.446,0.595-0.67,1.511-0.67,2.749c0,0.297,0.049,1.337,0.149,3.119c0.049,0.893,0.074,2.973,0.074,6.24
		c0.049,7.182,0.247,12.853,0.595,17.012c0.098,1.338,0.172,2.85,0.223,4.532l0.816,26.075c0.049,1.833,0.074,3.12,0.074,3.863
		v9.137l0.224,3.863l-0.224,4.012c0.197,2.031,0.298,3.244,0.298,3.641v3.937l-8.544,0.298l-8.84-9.139l-18.052-17.902
		l-12.629-12.629l-9.286-9.51c-6.043-5.942-11.54-11.167-16.492-15.674l-12.109-10.921l0.668,27.636
		c0.049,1.684,0.074,3.416,0.074,5.199l-0.074,5.275l0.446,9.73c0.148,4.063,0.42,8.47,0.817,13.225
		c0.099,1.287,0.223,2.191,0.372,2.711s0.446,1.275,0.892,2.266c1.931,0.694,6.14,1.215,12.629,1.561
		c0.446,0.1,1.089,0.272,1.931,0.52l0.297,6.018l-2.897,0.074c-1.585,0-6.587-0.371-15.006-1.114
		c-7.875,0.1-13.125,0.248-15.749,0.446c-2.626,0.197-4.062,0.297-4.309,0.297c-0.594,0-1.411-0.1-2.451-0.297
		c-0.1-1.139-0.148-2.129-0.148-2.973c0-0.544,0.024-1.436,0.074-2.674c1.386-0.248,2.525-0.371,3.417-0.371
		c0.297,0,1.263,0.049,2.897,0.148c4.16,0,6.623-0.309,7.392-0.929c0.767-0.618,1.2-2.29,1.3-5.015
		c0.346-7.875,0.52-12.678,0.52-14.412v-4.086l0.149-24.143l-0.223-15.081c-0.05-5.745-0.421-9.731-1.114-11.96
		c-0.297-1.139-0.867-2.129-1.708-2.973c-1.734-1.782-3.666-3.119-5.794-4.011C623.14,833.826,619.797,833.132,614.4,832.29z"/>
</g>
</svg>
