<?xml version="1.0" encoding="utf-8"?>
<!DOCTYPE svg PUBLIC "-//W3C//DTD SVG 1.1//EN" "http://www.w3.org/Graphics/SVG/1.1/DTD/svg11.dtd">
<svg version="1.1" id="Layer_1" xmlns="http://www.w3.org/2000/svg" xmlns:xlink="http://www.w3.org/1999/xlink" x="0px" y="0px"
	 width="100%" height="auto" viewBox="0 0 1353.136 1354.251" style="enable-background:new 0 0 1353.136 1354.251;"
	 xml:space="preserve">
<style type="text/css">
<![CDATA[
	.gear{fill:none;stroke:#fbb563;stroke-width:20;stroke-miterlimit:10;}
]]>
</style>
<path class="gear" d="M1340.251,743.959V604.382l-85.789-7.261c-3.242-24.456-7.152-48.425-13.35-71.82l78.439-40.164
	l-53.201-128.951l-83.487,26.771c-12.309-21.161-25.873-41.462-40.672-60.814l56.806-67.051l-98.686-98.692l-67.042,56.775
	c-19.352-14.799-39.648-28.419-60.809-40.728l26.777-83.6L870.283,35.439l-40.162,78.004c-23.395-6.193-47.365-9.198-71.824-12.445
	l-7.258-85.746H611.457l-7.258,85.746c-24.457,3.247-48.424,7.136-71.818,13.33l-40.164-78.45L363.258,89.071l26.773,83.493
	c-21.158,12.307-41.455,25.868-60.807,40.667l-67.055-56.807l-98.697,98.685l56.781,67.047
	c-14.799,19.351-28.416,39.646-40.723,60.806l-83.605-26.778L42.514,485.137l78.014,40.167
	c-6.195,23.393-12.741,47.363-15.987,71.816l-89.29,7.262v139.577l89.29,7.261c3.248,24.454,8.907,48.423,15.102,71.816
	l-77.569,40.166l53.638,128.953l83.711-26.772c12.309,21.158,25.982,41.457,40.781,60.806l-56.756,67.058l98.715,98.695
	l67.061-56.781c19.35,14.799,39.652,28.415,60.813,40.724l-26.771,83.605l128.955,53.411l40.166-78.012
	c23.391,6.193,47.361,12.283,71.814,15.53l7.258,88.832h139.582l7.258-88.832c24.453-3.245,48.424-8.676,71.814-14.871l40.166,77.68
	l128.957-53.579l-26.771-83.681c21.16-12.307,41.457-25.965,60.805-40.764l67.051,56.758l98.701-98.709l-56.777-67.056
	c14.799-19.351,28.416-39.652,40.723-60.811l83.598,26.769l53.418-128.954l-78.006-40.164c6.193-23.393,9.241-47.363,12.487-71.817
	L1340.251,743.959z"/>
	
<circle class="gear" cx="677.775" cy="675.751" r="515.064" />
</svg>
